<?xml version="1.0" encoding="utf-8"?>
<!-- Generator: Adobe Illustrator 27.8.0, SVG Export Plug-In . SVG Version: 6.00 Build 0)  -->
<svg xmlns="http://www.w3.org/2000/svg" xmlns:xlink="http://www.w3.org/1999/xlink" version="1.1" id="Calque_1" x="0px" y="0px" viewBox="0 0 877.6 184.2" style="enable-background:new 0 0 877.6 184.2;" xml:space="preserve" width="1200" height="251.48063781321">
<style type="text/css">
	.st0{fill:#EE2B47;}
	.st1{fill:#FFFFFF;}
</style>
<g>
	<g>
		<path class="st0" d="M346.8,116c-4.8,17.2-20.6,31.6-45.8,31.6c-27.4,0-51.8-19.6-51.8-53c0-32,23.8-52.4,49.6-52.4    c30.8,0,49.8,19,49.8,51c0,4.2-0.4,8.8-0.6,9.4h-69.2c0.6,11.2,10.8,19.2,22.6,19.2c11,0,17.2-5.2,20-13L346.8,116z M319.2,83    c-0.4-7.6-5.6-16.8-20-16.8c-12.8,0-19.2,9.4-19.8,16.8H319.2z"/>
		<path class="st0" d="M398.6,144.6h-30.4V45.2h29.4v11.4c5.4-9.4,17.6-14,27.8-14c25,0,36.2,17.8,36.2,39.6v62.4h-30.4V87.4    c0-9.8-5.2-17.2-16.2-17.2c-10,0-16.4,7.4-16.4,17.4V144.6z"/>
		<path class="st0" d="M523.6,45.2H543v26.6h-19.4V109c0,8.2,4.4,10.4,11,10.4c3.2,0,6.2-0.6,8-1v25.2c-1.2,0.6-6.2,2.8-15.8,2.8    c-20.6,0-33.2-12.2-33.2-32V71.8H476V45.2h5c10.4,0,15.4-7,15.4-16.2V16.2h27.2V45.2z"/>
		<path class="st0" d="M661.7,94.8c0,30.8-23,52.8-52.8,52.8c-29.6,0-52.8-22-52.8-52.8c0-30.8,23.2-52.6,52.8-52.6    C638.8,42.2,661.7,64,661.7,94.8z M631.4,94.8c0-16.8-10.8-24.6-22.4-24.6c-11.4,0-22.4,7.8-22.4,24.6c0,16.6,11,24.8,22.4,24.8    C620.6,119.6,631.4,111.6,631.4,94.8z"/>
		<path class="st0" d="M744.5,75.2c-3.4-0.8-6.6-1-9.6-1c-12.2,0-23.2,7.2-23.2,27v43.4h-30.4V45.2h29.4v13.4    c5.2-11.2,17.8-14.4,25.8-14.4c3,0,6,0.4,8,1V75.2z"/>
		<path class="st0" d="M852.2,116c-4.8,17.2-20.6,31.6-45.8,31.6c-27.4,0-51.8-19.6-51.8-53c0-32,23.8-52.4,49.6-52.4    c30.8,0,49.8,19,49.8,51c0,4.2-0.4,8.8-0.6,9.4h-69.2c0.6,11.2,10.8,19.2,22.6,19.2c11,0,17.2-5.2,20-13L852.2,116z M824.6,83    c-0.4-7.6-5.6-16.8-20-16.8c-12.8,0-19.2,9.4-19.8,16.8H824.6z"/>
	</g>
	<g>
		<path class="st0" d="M210.8,164.5H32.9c-7.8,0-14.1-6.3-14.1-14.1V39.9c0-7.8,6.3-14.1,14.1-14.1h177.9c7.8,0,14.1,6.3,14.1,14.1    v110.5C224.9,158.2,218.6,164.5,210.8,164.5z"/>
		<g>
			<path class="st1" d="M45.2,144.6V45.2h29v11.4c5-8.8,17.8-14.4,28.6-14.4c14.2,0,24.4,5.8,29.4,15.6     c7.8-11.2,17.4-15.6,30.8-15.6c18.8,0,36.8,11,36.8,38v64.4h-29.4V87c0-9.4-5-16.8-15.8-16.8s-16.6,8.2-16.6,17v57.4h-30V87     c0-9.4-5-16.8-16-16.8c-10.6,0-16.4,8.2-16.4,17.2v57.2H45.2z"/>
		</g>
	</g>
</g>
</svg>
